<?xml version="1.0" encoding="utf-8"?>
<!-- Svg Vector Icons : http://www.onlinewebfonts.com/icon -->
<!DOCTYPE svg PUBLIC "-//W3C//DTD SVG 1.1//EN" "http://www.w3.org/Graphics/SVG/1.1/DTD/svg11.dtd">
<svg version="1.1" xmlns="http://www.w3.org/2000/svg" xmlns:xlink="http://www.w3.org/1999/xlink" x="0px" y="0px" viewBox="0 0 1000 1000" enable-background="new 0 0 1000 1000" xml:space="preserve">
<metadata> Svg Vector Icons : http://www.onlinewebfonts.com/icon </metadata>
<g><g transform="translate(0.000000,511.000000) scale(0.100000,-0.100000)"><path d="M4098.6,4999.1c-185.3-30.5-298.7-67.6-479.7-154.8c-433.9-209.3-745.7-597.4-865.6-1074.9c-37.1-143.9-41.4-222.4-34.9-438.3c13.1-309.6,71.9-516.7,220.2-765.3l91.6-152.6l15.3,497.1c17.4,569.1,34.9,673.7,141.7,893.9c98.1,194.1,329.2,431.7,523.3,534.2c649.7,342.3,1469.5,91.6,1770.4-542.9c113.4-237.7,133-368.5,133-933.2v-468.8l56.7,76.3c80.7,109,196.2,357.6,239.8,521.1c47.9,176.6,54.5,590.9,10.9,760.9c-119.9,475.3-436.1,874.3-854.7,1079.3c-113.4,54.5-263.8,115.6-335.8,133C4571.7,5005.7,4246.8,5023.1,4098.6,4999.1z"/><path d="M4061.5,3974.4c-290-95.9-497.1-314-564.7-590.9c-10.9-41.4-19.6-959.4-21.8-2038.6c-2.2-1079.3-8.7-2021.2-17.4-2090.9l-13.1-128.6l-89.4,128.6c-50.1,69.8-150.4,239.8-224.6,377.2c-174.4,320.5-239.8,412.1-364.1,523.3c-163.5,141.7-300.9,185.3-597.4,187.5c-237.7,0-259.5-4.4-396.8-69.8c-316.1-148.3-505.8-466.6-427.3-717.3c15.3-48,510.2-1005.2,1096.7-2123.7C3448.8-4487.5,3516.4-4607.5,3608-4675c54.5-39.3,148.3-82.9,207.1-95.9c76.3-17.4,691.2-21.8,2038.6-17.4l1929.6,6.5l128.7,48c279.1,106.8,488.4,340.1,590.9,662.8c106.9,340.1,170.1,1316.9,170.1,2614.2c0,1046.6-8.7,1114.2-154.8,1330c-170.1,250.7-529.8,405.5-822,355.4c-72-13.1-146.1-30.5-163.5-37.1c-24-8.7-43.6,13.1-71.9,82.8c-119.9,294.3-473.1,488.4-841.6,464.4c-91.6-4.4-181-15.3-200.6-24c-26.2-10.9-39.3,6.5-58.9,69.8c-58.9,191.9-272.5,405.5-488.4,488.4c-215.8,82.8-401.2,91.6-649.7,34.9c-28.3-6.5-34.9,126.5-43.6,1061.8L5166.9,3438l-61,122.1c-76.3,154.8-218,287.8-399,372.8C4519.4,4020.2,4251.2,4037.6,4061.5,3974.4z M4519.4,3427.1c139.6-85,135.2-21.8,135.2-1886c0-1857.7-4.4-1783.5,130.8-1853.3c133-67.6,305.2-24,370.6,98.1c10.9,19.6,26.2,218,32.7,438.3c15.3,444.8,24,475.3,165.7,547.3c146.1,76.3,333.6,37.1,440.4-89.4l58.9-72V43.2c0-651.9,8.7-691.1,161.3-760.9c95.9-41.4,185.3-34.9,272.5,21.8c85,54.5,111.2,152.6,111.2,427.3c0,274.7,19.6,342.3,122.1,423c69.8,54.5,213.7,61.1,324.9,15.3c130.8-54.5,141.7-106.9,141.7-623.6c0-499.3,8.7-540.7,122.1-630.1c39.3-30.5,89.4-45.8,152.6-45.8c78.5,0,111.2,13.1,178.8,74.1l80.7,74.1l10.9,261.6c8.7,222.4,17.4,268.2,54.5,309.6c104.6,115.5,239.8,137.4,381.6,65.4c165.7-85,163.5-61,163.5-1166.5c-2.2-1290.8-63.2-2215.2-163.5-2446.3c-58.9-139.5-161.3-237.6-272.5-261.6c-48-8.7-911.4-17.4-1918.7-17.4H3948.1L2919-2296.3C2352.1-1227.9,1887.7-338.4,1887.7-318.7c-2.2,65.4,148.3,137.3,281.3,135.2c222.4-2.2,287.8-69.8,542.9-549.5c137.4-255.1,329.2-514.6,433.9-586.5c248.6-165.7,612.7-87.2,782.8,172.3l61,91.6l10.9,2160.7c10.9,2034.3,13.1,2162.9,50.1,2219.6C4144.4,3468.5,4371.1,3516.5,4519.4,3427.1z"/></g></g>
</svg>