<svg width="41" height="40" viewBox="0 0 41 40" fill="none" xmlns="http://www.w3.org/2000/svg">
<g clip-path="url(#clip0_232_8841)">
<path fill-rule="evenodd" clip-rule="evenodd" d="M20.5002 0C31.8223 0 41 8.95417 41 19.9998C41 31.0455 31.8223 39.9997 20.5002 39.9997C9.17803 40 0 31.0458 0 19.9998C0 8.95385 9.17803 0 20.5002 0ZM24.5078 12.7446C25.4253 11.8354 26.9171 11.8315 27.8397 12.7358C28.762 13.6394 28.7656 15.1095 27.8487 16.018L23.8234 20.0018L27.8527 23.9891C28.7633 24.8908 28.75 26.3515 27.826 27.2515C26.9008 28.1516 25.4137 28.1493 24.5044 27.2473L20.5022 23.288L16.4922 27.2554C15.5747 28.1646 14.0832 28.1685 13.1603 27.2642C12.2384 26.3606 12.234 24.8902 13.1513 23.9816L17.1769 19.9982L13.1473 16.0109C12.237 15.1095 12.2501 13.6489 13.1746 12.7485C14.0995 11.8484 15.5867 11.8507 16.4956 12.7527L20.4985 16.7127L24.5078 12.7446Z" fill="#FF4141"/>
</g>
<defs>
<clipPath id="clip0_232_8841">
<rect width="41" height="40" fill="white"/>
</clipPath>
</defs>
</svg>
